<svg width="600" height="220" viewBox="0 0 600 220" fill="none" xmlns="http://www.w3.org/2000/svg">
  <path
    d="M60 180
       Q100 140 180 160
       Q260 180 340 90
       Q380 50 420 60
       Q470 75 430 130
       Q420 145 410 150
       Q400 155 395 140
       Q390 120 410 110
       Q440 95 470 110
       Q500 125 520 165
       Q530 185 510 200
       Q490 215 465 200
       Q440 185 450 150
       Q460 120 500 120"
    stroke="black" stroke-width="3" fill="none"
    style="stroke-linecap:round;stroke-linejoin:round"
  />
  <!-- Tennis ball (single line loop) -->
  <path
    d="M540 70
       Q550 60 560 70
       Q570 80 560 90
       Q550 100 540 90
       Q530 80 540 70"
    stroke="black" stroke-width="3" fill="none"
    style="stroke-linecap:round;stroke-linejoin:round"
  />
</svg>